<?xml version="1.0" encoding="iso-8859-1"?>
<!-- Generator: Adobe Illustrator 19.0.0, SVG Export Plug-In . SVG Version: 6.00 Build 0)  -->
<svg version="1.1" id="Capa_1" xmlns="http://www.w3.org/2000/svg" xmlns:xlink="http://www.w3.org/1999/xlink" x="0px" y="0px"
	 viewBox="0 0 512 512" style="enable-background:new 0 0 512 512;" xml:space="preserve">
<path style="fill:#ECF0F1;" d="M475.733,503.467H36.267c-15.317,0-27.733-12.416-27.733-27.733v-364.8h494.933v364.8
	C503.467,491.051,491.051,503.467,475.733,503.467z"/>
<path style="fill:#687492;" d="M503.467,110.933H8.533V36.267c0-15.317,12.416-27.733,27.733-27.733h439.467
	c15.317,0,27.733,12.416,27.733,27.733V110.933z"/>
<rect x="42.667" y="42.667" style="fill:#E64C3C;" width="34.133" height="34.133"/>
<rect x="110.933" y="42.667" style="fill:#F0C419;" width="34.133" height="34.133"/>
<rect x="179.2" y="42.667" style="fill:#24AE5F;" width="34.133" height="34.133"/>
<rect x="247.467" y="110.933" style="fill:#B1BEC6;" width="17.067" height="392.533"/>
<path style="fill:#26B99A;" d="M221.867,290.133h-179.2c-4.71,0-8.533-3.823-8.533-8.533V162.133c0-4.71,3.823-8.533,8.533-8.533
	h179.2c4.71,0,8.533,3.823,8.533,8.533V281.6C230.4,286.31,226.577,290.133,221.867,290.133z"/>
<g>
	<path style="fill:#FFFFFF;" d="M76.8,256c-2.185,0-4.369-0.836-6.033-2.5c-3.337-3.337-3.337-8.73,0-12.066L104.9,207.3
		c3.337-3.337,8.73-3.337,12.066,0c3.337,3.337,3.337,8.73,0,12.066L82.833,253.5C81.169,255.164,78.985,256,76.8,256z"/>
	<path style="fill:#FFFFFF;" d="M145.067,256c-2.185,0-4.369-0.836-6.033-2.5L104.9,219.366c-3.337-3.337-3.337-8.73,0-12.066
		c3.337-3.337,8.73-3.337,12.066,0l34.133,34.133c3.337,3.337,3.337,8.73,0,12.066C149.436,255.164,147.251,256,145.067,256z"/>
	<path style="fill:#FFFFFF;" d="M123.733,234.667c-2.185,0-4.369-0.836-6.033-2.5c-3.337-3.337-3.337-8.73,0-12.066l29.867-29.867
		c3.337-3.337,8.73-3.337,12.066,0c3.337,3.337,3.337,8.73,0,12.066l-29.867,29.867C128.102,233.83,125.918,234.667,123.733,234.667
		z"/>
	<path style="fill:#FFFFFF;" d="M187.733,238.933c-2.185,0-4.369-0.836-6.033-2.5L147.567,202.3c-3.337-3.337-3.337-8.73,0-12.066
		c3.337-3.337,8.73-3.337,12.066,0l34.133,34.133c3.337,3.337,3.337,8.73,0,12.066C192.102,238.097,189.918,238.933,187.733,238.933
		z"/>
</g>
<g>
	<path style="fill:#B1BEC6;" d="M204.8,366.933H42.667c-4.71,0-8.533-3.823-8.533-8.533s3.823-8.533,8.533-8.533H204.8
		c4.71,0,8.533,3.823,8.533,8.533S209.51,366.933,204.8,366.933z"/>
	<path style="fill:#B1BEC6;" d="M162.133,332.8H42.667c-4.71,0-8.533-3.823-8.533-8.533s3.823-8.533,8.533-8.533h119.467
		c4.71,0,8.533,3.823,8.533,8.533S166.844,332.8,162.133,332.8z"/>
	<path style="fill:#B1BEC6;" d="M221.867,401.067h-179.2c-4.71,0-8.533-3.823-8.533-8.533S37.956,384,42.667,384h179.2
		c4.71,0,8.533,3.823,8.533,8.533S226.577,401.067,221.867,401.067z"/>
	<path style="fill:#B1BEC6;" d="M221.867,435.2h-179.2c-4.71,0-8.533-3.823-8.533-8.533s3.823-8.533,8.533-8.533h179.2
		c4.71,0,8.533,3.823,8.533,8.533S226.577,435.2,221.867,435.2z"/>
	<path style="fill:#B1BEC6;" d="M221.867,469.333h-179.2c-4.71,0-8.533-3.823-8.533-8.533s3.823-8.533,8.533-8.533h179.2
		c4.71,0,8.533,3.823,8.533,8.533S226.577,469.333,221.867,469.333z"/>
</g>
<path style="fill:#26B99A;" d="M469.333,290.133h-179.2c-4.71,0-8.533-3.823-8.533-8.533V162.133c0-4.71,3.823-8.533,8.533-8.533
	h179.2c4.71,0,8.533,3.823,8.533,8.533V281.6C477.867,286.31,474.044,290.133,469.333,290.133z"/>
<g>
	<path style="fill:#FFFFFF;" d="M324.267,256c-2.185,0-4.369-0.836-6.033-2.5c-3.337-3.337-3.337-8.73,0-12.066l34.133-34.133
		c3.337-3.337,8.73-3.337,12.066,0c3.337,3.337,3.337,8.73,0,12.066L330.3,253.5C328.636,255.164,326.451,256,324.267,256z"/>
	<path style="fill:#FFFFFF;" d="M392.533,256c-2.185,0-4.369-0.836-6.033-2.5l-34.133-34.133c-3.337-3.337-3.337-8.73,0-12.066
		c3.337-3.337,8.73-3.337,12.066,0l34.133,34.133c3.337,3.337,3.337,8.73,0,12.066C396.902,255.164,394.718,256,392.533,256z"/>
	<path style="fill:#FFFFFF;" d="M371.2,234.667c-2.185,0-4.369-0.836-6.033-2.5c-3.337-3.337-3.337-8.73,0-12.066l29.867-29.867
		c3.337-3.337,8.73-3.337,12.066,0c3.337,3.337,3.337,8.73,0,12.066l-29.867,29.867C375.569,233.83,373.385,234.667,371.2,234.667z"
		/>
	<path style="fill:#FFFFFF;" d="M435.2,238.933c-2.185,0-4.369-0.836-6.033-2.5L395.034,202.3c-3.337-3.337-3.337-8.73,0-12.066
		c3.337-3.337,8.73-3.337,12.066,0l34.133,34.133c3.337,3.337,3.337,8.73,0,12.066C439.569,238.097,437.385,238.933,435.2,238.933z"
		/>
</g>
<g>
	<path style="fill:#B1BEC6;" d="M452.267,366.933H290.133c-4.71,0-8.533-3.823-8.533-8.533s3.823-8.533,8.533-8.533h162.133
		c4.71,0,8.533,3.823,8.533,8.533S456.977,366.933,452.267,366.933z"/>
	<path style="fill:#B1BEC6;" d="M409.6,332.8H290.133c-4.71,0-8.533-3.823-8.533-8.533s3.823-8.533,8.533-8.533H409.6
		c4.71,0,8.533,3.823,8.533,8.533S414.31,332.8,409.6,332.8z"/>
	<path style="fill:#B1BEC6;" d="M469.333,401.067h-179.2c-4.71,0-8.533-3.823-8.533-8.533s3.823-8.533,8.533-8.533h179.2
		c4.71,0,8.533,3.823,8.533,8.533S474.044,401.067,469.333,401.067z"/>
	<path style="fill:#B1BEC6;" d="M469.333,435.2h-179.2c-4.71,0-8.533-3.823-8.533-8.533s3.823-8.533,8.533-8.533h179.2
		c4.71,0,8.533,3.823,8.533,8.533S474.044,435.2,469.333,435.2z"/>
	<path style="fill:#B1BEC6;" d="M469.333,469.333h-179.2c-4.71,0-8.533-3.823-8.533-8.533s3.823-8.533,8.533-8.533h179.2
		c4.71,0,8.533,3.823,8.533,8.533S474.044,469.333,469.333,469.333z"/>
</g>
<g>
	<path style="fill:#611C90;" d="M473.6,512H38.4C17.229,512,0,494.771,0,473.6V38.4C0,17.229,17.229,0,38.4,0h435.2
		C494.771,0,512,17.229,512,38.4v435.2C512,494.771,494.771,512,473.6,512z M38.4,17.067c-11.759,0-21.333,9.574-21.333,21.333
		v435.2c0,11.767,9.574,21.333,21.333,21.333h435.2c11.767,0,21.333-9.566,21.333-21.333V38.4c0-11.759-9.566-21.333-21.333-21.333
		H38.4z"/>
	<path style="fill:#611C90;" d="M76.8,85.333H42.667c-4.71,0-8.533-3.823-8.533-8.533V42.667c0-4.71,3.823-8.533,8.533-8.533H76.8
		c4.71,0,8.533,3.823,8.533,8.533V76.8C85.333,81.51,81.51,85.333,76.8,85.333z M51.2,68.267h17.067V51.2H51.2V68.267z"/>
	<path style="fill:#611C90;" d="M145.067,85.333h-34.133c-4.71,0-8.533-3.823-8.533-8.533V42.667c0-4.71,3.823-8.533,8.533-8.533
		h34.133c4.71,0,8.533,3.823,8.533,8.533V76.8C153.6,81.51,149.777,85.333,145.067,85.333z M119.467,68.267h17.067V51.2h-17.067
		V68.267z"/>
	<path style="fill:#611C90;" d="M213.333,85.333H179.2c-4.71,0-8.533-3.823-8.533-8.533V42.667c0-4.71,3.823-8.533,8.533-8.533
		h34.133c4.71,0,8.533,3.823,8.533,8.533V76.8C221.867,81.51,218.044,85.333,213.333,85.333z M187.733,68.267H204.8V51.2h-17.067
		V68.267z"/>
	<path style="fill:#611C90;" d="M503.467,119.467H8.533c-4.71,0-8.533-3.823-8.533-8.533V38.4C0,17.229,17.229,0,38.4,0h435.2
		C494.771,0,512,17.229,512,38.4v72.533C512,115.644,508.186,119.467,503.467,119.467z M17.067,102.4h477.867v-64
		c0-11.759-9.566-21.333-21.333-21.333H38.4c-11.759,0-21.333,9.574-21.333,21.333V102.4z"/>
	<path style="fill:#611C90;" d="M475.238,512H256c-4.71,0-8.533-3.814-8.533-8.533V110.933c0-4.71,3.823-8.533,8.533-8.533h247.467
		c4.719,0,8.533,3.823,8.533,8.533v364.305C512,495.505,495.505,512,475.238,512z M264.533,494.933h210.705
		c10.863,0,19.695-8.832,19.695-19.695V119.467h-230.4V494.933z"/>
	<path style="fill:#611C90;" d="M221.867,290.133h-179.2c-4.71,0-8.533-3.814-8.533-8.533V162.133c0-4.71,3.823-8.533,8.533-8.533
		h179.2c4.71,0,8.533,3.823,8.533,8.533V281.6C230.4,286.319,226.577,290.133,221.867,290.133z M51.2,273.067h162.133v-102.4H51.2
		V273.067z"/>
	<path style="fill:#611C90;" d="M76.8,256c-2.185,0-4.369-0.836-6.033-2.5c-3.337-3.337-3.337-8.73,0-12.066L104.9,207.3
		c3.337-3.337,8.73-3.337,12.066,0c3.337,3.337,3.337,8.73,0,12.066L82.833,253.5C81.169,255.164,78.985,256,76.8,256z"/>
	<path style="fill:#611C90;" d="M145.067,256c-2.185,0-4.369-0.836-6.033-2.5L104.9,219.366c-3.337-3.337-3.337-8.73,0-12.066
		c3.337-3.337,8.73-3.337,12.066,0l34.133,34.133c3.337,3.337,3.337,8.73,0,12.066C149.436,255.164,147.251,256,145.067,256z"/>
	<path style="fill:#611C90;" d="M123.733,234.667c-2.185,0-4.369-0.836-6.033-2.5c-3.337-3.337-3.337-8.73,0-12.066l29.867-29.867
		c3.337-3.337,8.73-3.337,12.066,0c3.337,3.337,3.337,8.73,0,12.066l-29.867,29.867C128.102,233.83,125.918,234.667,123.733,234.667
		z"/>
	<path style="fill:#611C90;" d="M187.733,238.933c-2.185,0-4.369-0.836-6.033-2.5L147.567,202.3c-3.337-3.337-3.337-8.73,0-12.066
		c3.337-3.337,8.73-3.337,12.066,0l34.133,34.133c3.337,3.337,3.337,8.73,0,12.066C192.102,238.097,189.918,238.933,187.733,238.933
		z"/>
	<path style="fill:#611C90;" d="M204.8,366.933H42.667c-4.71,0-8.533-3.814-8.533-8.533c0-4.719,3.823-8.533,8.533-8.533H204.8
		c4.71,0,8.533,3.814,8.533,8.533C213.333,363.119,209.51,366.933,204.8,366.933z"/>
	<path style="fill:#611C90;" d="M162.133,332.8H42.667c-4.71,0-8.533-3.814-8.533-8.533c0-4.719,3.823-8.533,8.533-8.533h119.467
		c4.71,0,8.533,3.814,8.533,8.533C170.667,328.986,166.844,332.8,162.133,332.8z"/>
	<path style="fill:#611C90;" d="M221.867,401.067h-179.2c-4.71,0-8.533-3.814-8.533-8.533S37.956,384,42.667,384h179.2
		c4.71,0,8.533,3.814,8.533,8.533S226.577,401.067,221.867,401.067z"/>
	<path style="fill:#611C90;" d="M221.867,435.2h-179.2c-4.71,0-8.533-3.814-8.533-8.533s3.823-8.533,8.533-8.533h179.2
		c4.71,0,8.533,3.814,8.533,8.533S226.577,435.2,221.867,435.2z"/>
	<path style="fill:#611C90;" d="M221.867,469.333h-179.2c-4.71,0-8.533-3.814-8.533-8.533c0-4.719,3.823-8.533,8.533-8.533h179.2
		c4.71,0,8.533,3.814,8.533,8.533C230.4,465.519,226.577,469.333,221.867,469.333z"/>
	<path style="fill:#611C90;" d="M469.333,290.133h-179.2c-4.719,0-8.533-3.814-8.533-8.533V162.133c0-4.71,3.814-8.533,8.533-8.533
		h179.2c4.719,0,8.533,3.823,8.533,8.533V281.6C477.867,286.319,474.052,290.133,469.333,290.133z M298.667,273.067H460.8v-102.4
		H298.667V273.067z"/>
	<path style="fill:#611C90;" d="M324.267,256c-2.185,0-4.369-0.836-6.033-2.5c-3.337-3.337-3.337-8.73,0-12.066l34.133-34.133
		c3.337-3.337,8.73-3.337,12.066,0c3.337,3.337,3.337,8.73,0,12.066L330.3,253.5C328.636,255.164,326.451,256,324.267,256z"/>
	<path style="fill:#611C90;" d="M392.533,256c-2.185,0-4.369-0.836-6.033-2.5l-34.133-34.133c-3.337-3.337-3.337-8.73,0-12.066
		c3.337-3.337,8.73-3.337,12.066,0l34.133,34.133c3.337,3.337,3.337,8.73,0,12.066C396.902,255.164,394.718,256,392.533,256z"/>
	<path style="fill:#611C90;" d="M371.2,234.667c-2.185,0-4.369-0.836-6.033-2.5c-3.337-3.337-3.337-8.73,0-12.066l29.867-29.867
		c3.337-3.337,8.73-3.337,12.066,0c3.337,3.337,3.337,8.73,0,12.066l-29.867,29.867C375.569,233.83,373.385,234.667,371.2,234.667z"
		/>
	<path style="fill:#611C90;" d="M435.2,238.933c-2.185,0-4.369-0.836-6.033-2.5L395.034,202.3c-3.337-3.337-3.337-8.73,0-12.066
		c3.337-3.337,8.73-3.337,12.066,0l34.133,34.133c3.337,3.337,3.337,8.73,0,12.066C439.569,238.097,437.385,238.933,435.2,238.933z"
		/>
	<path style="fill:#611C90;" d="M452.267,366.933H290.133c-4.719,0-8.533-3.814-8.533-8.533c0-4.719,3.814-8.533,8.533-8.533
		h162.133c4.719,0,8.533,3.814,8.533,8.533C460.8,363.119,456.986,366.933,452.267,366.933z"/>
	<path style="fill:#611C90;" d="M409.6,332.8H290.133c-4.719,0-8.533-3.814-8.533-8.533c0-4.719,3.814-8.533,8.533-8.533H409.6
		c4.719,0,8.533,3.814,8.533,8.533C418.133,328.986,414.319,332.8,409.6,332.8z"/>
	<path style="fill:#611C90;" d="M469.333,401.067h-179.2c-4.719,0-8.533-3.814-8.533-8.533s3.814-8.533,8.533-8.533h179.2
		c4.719,0,8.533,3.814,8.533,8.533S474.052,401.067,469.333,401.067z"/>
	<path style="fill:#611C90;" d="M469.333,435.2h-179.2c-4.719,0-8.533-3.814-8.533-8.533s3.814-8.533,8.533-8.533h179.2
		c4.719,0,8.533,3.814,8.533,8.533S474.052,435.2,469.333,435.2z"/>
	<path style="fill:#611C90;" d="M469.333,469.333h-179.2c-4.719,0-8.533-3.814-8.533-8.533c0-4.719,3.814-8.533,8.533-8.533h179.2
		c4.719,0,8.533,3.814,8.533,8.533C477.867,465.519,474.052,469.333,469.333,469.333z"/>
</g>
<g>
</g>
<g>
</g>
<g>
</g>
<g>
</g>
<g>
</g>
<g>
</g>
<g>
</g>
<g>
</g>
<g>
</g>
<g>
</g>
<g>
</g>
<g>
</g>
<g>
</g>
<g>
</g>
<g>
</g>
</svg>
