<?xml version="1.0" encoding="iso-8859-1"?>
<!-- Generator: Adobe Illustrator 19.0.0, SVG Export Plug-In . SVG Version: 6.00 Build 0)  -->
<svg version="1.1" id="Capa_1" xmlns="http://www.w3.org/2000/svg" xmlns:xlink="http://www.w3.org/1999/xlink" x="0px" y="0px"
	 viewBox="0 0 512 512" style="enable-background:new 0 0 512 512;" xml:space="preserve">
<g>
	<path style="fill:#4AD194;" d="M256,502c135.492,0,246-110.508,246-246S391.492,10,256,10S10,120.508,10,256S120.508,502,256,502z"
		/>
	<path style="fill:#A6F076;" d="M256,462c113.462,0,206-92.539,206-206S369.462,50,256,50C142.539,50,50,142.539,50,256
		S142.539,462,256,462z"/>
	<rect x="165.77" y="139.89" style="fill:#E5E5E5;" width="168.86" height="212.87"/>
	<g>
		<path style="fill:#636A75;" d="M165.768,342.349h168.863l-0.001,42.169c0,10.912-8.928,19.841-19.84,19.841H185.607
			c-10.912,0-19.84-8.928-19.84-19.841v-42.169H165.768z"/>
		<path style="fill:#636A75;" d="M334.631,150.3H165.768v-22.818c0-10.912,8.928-19.84,19.84-19.84H314.79
			c10.912,0,19.84,8.928,19.84,19.84L334.631,150.3z"/>
	</g>
</g>
<path d="M256,0C114.841,0,0,114.841,0,256s114.841,256,256,256s256-114.841,256-256S397.159,0,256,0z M256,492
	C125.869,492,20,386.131,20,256S125.869,20,256,20s236,105.869,236,236S386.131,492,256,492z"/>
<path d="M440.015,142.897C409.802,93.745,362.256,59.3,306.136,45.908c-56.118-13.39-114.095-4.126-163.248,26.087
	c-49.152,30.213-83.597,77.759-96.988,133.88c-13.392,56.12-4.127,114.096,26.086,163.248c30.214,49.152,77.76,83.597,133.88,96.989
	c16.475,3.931,33.271,5.876,50.033,5.876c32.925-0.001,65.702-7.508,95.551-22.21c4.954-2.44,6.992-8.435,4.552-13.39
	c-2.439-4.953-8.434-6.994-13.39-4.552c-40.872,20.133-87.787,25.397-132.104,14.822C105.385,421.572,40.269,315.64,65.353,210.517
	c25.086-105.123,131.019-170.24,236.14-145.155c105.123,25.085,170.239,131.017,145.154,236.141
	c-8.391,35.161-26.315,67.279-51.836,92.881c-3.899,3.912-3.89,10.243,0.022,14.143c3.909,3.898,10.242,3.889,14.142-0.023
	c28.126-28.214,47.879-63.61,57.125-102.359C479.492,250.024,470.229,192.049,440.015,142.897z"/>
<path d="M365.926,418.281l-0.262,0.177c-4.582,3.083-5.797,9.297-2.714,13.879c1.931,2.869,5.089,4.418,8.306,4.418
	c1.92,0,3.861-0.552,5.574-1.705l0.367-0.249c4.563-3.113,5.737-9.335,2.625-13.896
	C376.709,416.343,370.486,415.169,365.926,418.281z"/>
<path d="M161.569,384.518c0,16.454,13.386,29.841,29.84,29.841h129.183c16.454,0,29.84-13.387,29.84-29.841V127.482
	c0-16.454-13.386-29.84-29.84-29.84H191.409c-16.454,0-29.84,13.386-29.84,29.84l0,0c0,0.007,0-0.006,0,0s0,0,0,0.006l0,0V384.518
	 M320.592,394.358H191.409c-5.426,0-9.84-4.414-9.84-9.841l-0.001-33.156h148.863v33.156
	C330.432,389.944,326.018,394.358,320.592,394.358z M191.409,117.642h129.183c5.426,0,9.84,4.414,9.84,9.84v203.88H181.569l0,0
	V161.288h89.852l0,0l0,0c5.522,0,10-4.477,10-10s-4.478-10-10-10l0,0h-89.852l0,0v-13.807
	C181.569,122.056,185.983,117.642,191.409,117.642z"/>
<path d="M256,360.798c-6.643,0-12.061,5.418-12.061,12.061c0,6.644,5.418,12.061,12.061,12.061c6.644,0,12.062-5.418,12.062-12.061
	S262.644,360.798,256,360.798z"/>
<path d="M300.507,161.288h0.475c5.522,0,10-4.477,10-10s-4.478-10-10-10h-0.475c-5.522,0-10,4.477-10,10
	C290.507,156.811,294.984,161.288,300.507,161.288z"/>
<g>
</g>
<g>
</g>
<g>
</g>
<g>
</g>
<g>
</g>
<g>
</g>
<g>
</g>
<g>
</g>
<g>
</g>
<g>
</g>
<g>
</g>
<g>
</g>
<g>
</g>
<g>
</g>
<g>
</g>
</svg>
